<?xml version="1.0" encoding="utf-8"?>
<!-- Generator: Adobe Illustrator 23.0.2, SVG Export Plug-In . SVG Version: 6.00 Build 0)  -->
<svg version="1.1" id="Layer_1" xmlns="http://www.w3.org/2000/svg" xmlns:xlink="http://www.w3.org/1999/xlink" x="0px" y="0px"
	 viewBox="0 0 18 18" style="enable-background:new 0 0 18 18;" xml:space="preserve">
<style type="text/css">
	.st0{fill:#1B2036;}
</style>
<path class="st0" d="M17.7,17.7c-0.4,0.4-0.9,0.4-1.3,0L9,10.3l-7.5,7.5c-0.4,0.4-0.9,0.4-1.3,0c-0.4-0.4-0.4-0.9,0-1.3L7.7,9
	L0.3,1.5c-0.4-0.4-0.4-0.9,0-1.3c0.4-0.4,0.9-0.4,1.3,0L9,7.7l7.5-7.5c0.4-0.4,0.9-0.4,1.3,0c0.4,0.4,0.4,0.9,0,1.3L10.3,9l7.5,7.5
	C18.1,16.8,18.1,17.4,17.7,17.7z"/>
</svg>
